<svg width="100" height="101" viewBox="0 0 100 101" fill="none" xmlns="http://www.w3.org/2000/svg">
<path d="M0 0.990099H50H100V50.9901V100.99H50H0V50.9901V0.990099Z" fill="url(#paint0_linear_1_31)"/>
<path fill-rule="evenodd" clip-rule="evenodd" d="M49.5 53C61.3741 53 71 43.3741 71 31.5C71 19.6259 61.3741 10 49.5 10C39.0217 10 30.2942 17.4958 28.3871 27.4176C26.2237 25.3032 23.264 24 20 24C13.3726 24 8 29.3726 8 36C8 42.6274 13.3726 48 20 48C24.5668 48 28.5378 45.4489 30.5657 41.6941C34.1976 48.4258 41.3146 53 49.5 53Z" fill="url(#paint1_linear_1_31)"/>
<path d="M8 52C8 46.4772 12.4772 42 18 42H81C86.5228 42 91 46.4772 91 52V66C91 71.5228 86.5228 76 81 76H8V52Z" fill="#4286C5"/>
<circle cx="89" cy="30" r="5.5" fill="url(#paint2_linear_1_31)" stroke="white"/>
<path d="M64.0622 69.5L74.5622 75.5622L64.0622 81.6244L64.0622 69.5Z" fill="white"/>
<g filter="url(#filter0_d_1_31)">
<path d="M16.76 43.816C16.712 45.976 16.712 45.976 16.664 46.936H14.84C13.328 46.936 12.824 46.912 12.032 46.792V50.416C12.8 50.296 13.424 50.272 14.768 50.272H16.256C15.632 53.272 14.24 55.192 11.504 56.824C12.776 57.904 13.328 58.552 14.072 59.872C16.472 57.976 17.624 56.56 18.632 54.304C19.496 55.864 20.432 56.992 22.136 58.48C22.76 56.944 23.12 56.224 23.768 55.216V56.752C23.768 57.664 23.72 58.72 23.648 59.56H27.296V58H29.84V59.584H33.536C33.44 58.504 33.392 57.52 33.392 56.44V41.776C33.392 40.696 33.416 40 33.512 39.232C32.816 39.328 32.144 39.352 31.232 39.352H25.904C24.872 39.352 24.392 39.328 23.672 39.232C23.744 39.976 23.768 40.792 23.768 41.776V54.76C21.848 53.32 20.864 52.264 19.808 50.56C19.832 50.44 19.832 50.392 19.856 50.272H20.912C22.04 50.272 22.592 50.296 23.288 50.368V46.816C22.616 46.912 22.136 46.936 21.056 46.936H20.216C20.264 46.072 20.264 46.072 20.312 43.816H20.768C21.752 43.816 22.448 43.84 23.144 43.912V40.336C22.496 40.432 21.872 40.456 20.768 40.456H17.624C17.816 39.952 17.888 39.688 18.008 39.328C18.248 38.536 18.296 38.392 18.416 38.104L14.768 37.336C14.72 37.84 14.624 38.32 14.384 39.016C13.712 41.152 12.872 42.688 11.48 44.248C12.68 44.968 13.424 45.664 14.264 46.816C15.152 45.616 15.512 45.064 16.16 43.816H16.76ZM27.368 42.664H29.84V54.64H27.368V42.664Z" fill="white"/>
<path d="M47.14 50.264V50.056C47.14 49.406 47.166 48.86 47.244 48.392H43.162C43.214 48.86 43.266 49.484 43.266 50.108V50.264H41.524C40.614 50.264 39.73 50.212 38.82 50.134V53.982C39.756 53.904 40.614 53.852 41.472 53.852H43.266V56.452C39.574 56.79 38.664 56.868 38.17 56.868C38.118 56.868 38.04 56.868 37.91 56.868L38.482 60.95C39.158 60.82 41.056 60.482 41.628 60.404C46.672 59.702 48.622 59.364 52.002 58.714V55.152C49.922 55.568 49.116 55.698 47.14 55.984V53.852H48.96C49.636 53.852 50.598 53.904 51.43 53.956V50.134C50.624 50.238 49.896 50.264 48.934 50.264H47.14ZM41.758 41.424C41.368 42.568 40.978 43.53 40.458 44.544C39.756 44.57 39.392 44.57 39.34 44.57C38.95 44.57 38.456 44.544 38.014 44.492L38.43 48.548C38.768 48.47 38.794 48.47 39.262 48.418C39.314 48.418 39.548 48.392 39.886 48.366C40.224 48.314 40.51 48.288 40.718 48.262C46.386 47.742 46.932 47.664 49.194 47.326C49.402 47.69 49.532 47.95 50.026 48.964L52.626 47.43V52.474C52.626 53.748 52.6 54.294 52.522 55.1H56.5C56.422 54.398 56.396 53.852 56.396 52.474V41.632C56.396 40.384 56.422 39.76 56.5 39.058H52.522C52.6 39.786 52.626 40.488 52.626 41.736V46C51.508 44.18 50.546 42.802 49.428 41.424C50.624 41.424 51.066 41.45 51.898 41.528V37.628C50.884 37.732 49.948 37.784 48.57 37.784H41.212C39.938 37.784 39.028 37.732 38.144 37.628V41.528C38.924 41.476 39.834 41.424 40.874 41.424H41.758ZM49.22 41.424L46.308 42.776C46.828 43.478 47.036 43.764 47.348 44.258C46.464 44.336 45.606 44.388 44.54 44.44C45.086 43.4 45.476 42.542 45.944 41.424H49.22ZM57.514 37.212C57.618 38.018 57.644 38.876 57.644 40.488V56.79C57.644 57.44 57.436 57.57 56.474 57.57C55.538 57.57 54.654 57.492 53.12 57.31C53.692 58.766 53.926 59.65 54.134 61.158C55.694 61.262 56.344 61.288 57.124 61.288C60.53 61.288 61.544 60.43 61.544 57.518V40.358C61.544 38.642 61.57 37.94 61.7 37.212H57.514Z" fill="white"/>
<path d="M74.888 51.544V57.832C74.888 58.888 74.864 59.56 74.768 60.16H78.416V59.104H82.736V60.136H86.48C86.408 59.512 86.36 58.768 86.36 57.736V51.928C86.36 51.76 86.36 51.64 86.36 51.376L87.44 51.736C87.728 50.344 88.064 49.408 88.712 48.088C86.528 47.56 85.016 47.032 83.384 46.24C84.584 45.016 85.232 44.224 86.432 42.568C86.888 41.92 86.888 41.92 87.44 41.296L85.352 39.016C84.8 39.112 84.344 39.136 83.408 39.136H80.312C80.456 38.776 80.504 38.656 80.648 38.368C80.72 38.176 80.744 38.104 80.84 37.912L77 37.384C76.616 39.232 75.296 41.152 73.352 42.64V41.584C73.352 39.976 73.352 39.664 73.4 39.16C72.944 39.208 72.416 39.232 71.84 39.232H67.616C66.992 39.232 66.512 39.208 66.032 39.16C66.104 39.856 66.128 40.456 66.128 41.56V54.376C66.128 55.552 66.08 56.728 66.008 57.592H69.248V55.24H70.352V56.272H73.4C73.352 55.648 73.352 55.336 73.352 53.776V49.888C73.712 50.68 73.832 50.992 74.072 51.856L74.888 51.544ZM73.352 44.344C73.856 44.968 74.096 45.28 74.624 46.12C75.512 45.472 75.848 45.232 76.352 44.8C76.952 45.496 77.216 45.784 77.816 46.36C76.496 47.152 75.008 47.8 73.352 48.352V44.344ZM77.504 50.464C78.704 49.888 79.496 49.408 80.624 48.616C81.68 49.312 82.832 49.936 83.936 50.464H77.504ZM78.656 42.232H82.472C81.728 43.24 81.416 43.6 80.504 44.416C79.568 43.672 79.232 43.336 78.512 42.424L78.656 42.232ZM69.248 42.448H70.352V51.952H69.248V42.448ZM78.416 53.728H82.736V55.84H78.416V53.728Z" fill="white"/>
</g>
<g style="mix-blend-mode:luminosity">
<path d="M46.424 64.176V66.432C46.08 65.976 45.672 65.752 45.192 65.752C44.6 65.752 44.128 65.968 43.792 66.4C43.472 66.8 43.32 67.304 43.32 67.912C43.32 68.544 43.48 69.064 43.8 69.464C44.144 69.896 44.624 70.112 45.24 70.112C45.784 70.112 46.2 69.928 46.488 69.56V70H47.336V64.176H46.424ZM45.408 66.488C45.696 66.488 45.944 66.608 46.136 66.848C46.344 67.104 46.456 67.456 46.456 67.896V67.96C46.456 68.36 46.368 68.696 46.2 68.952C46.008 69.232 45.728 69.376 45.376 69.376C44.968 69.376 44.672 69.232 44.488 68.944C44.328 68.704 44.256 68.36 44.256 67.912C44.256 67.464 44.336 67.128 44.504 66.896C44.696 66.624 44.992 66.488 45.408 66.488ZM50.1725 65.752C49.6445 65.752 49.2285 65.84 48.9245 66.032C48.5645 66.24 48.3405 66.576 48.2525 67.032L49.1565 67.104C49.2045 66.888 49.3245 66.728 49.5005 66.624C49.6525 66.528 49.8525 66.488 50.1085 66.488C50.7005 66.488 50.9965 66.752 50.9965 67.296V67.456L50.0925 67.48C49.4845 67.496 49.0125 67.624 48.6765 67.864C48.3085 68.112 48.1325 68.472 48.1325 68.936C48.1325 69.28 48.2605 69.56 48.5165 69.784C48.7645 70 49.1005 70.112 49.5325 70.112C49.8925 70.112 50.2045 70.048 50.4685 69.928C50.7005 69.816 50.9005 69.664 51.0605 69.456V70H51.9085V67.36C51.9085 66.856 51.7805 66.472 51.5245 66.208C51.2365 65.904 50.7805 65.752 50.1725 65.752ZM50.9965 68.112V68.32C50.9965 68.64 50.8685 68.904 50.6285 69.112C50.3885 69.312 50.0925 69.416 49.7405 69.416C49.5405 69.416 49.3805 69.36 49.2525 69.264C49.1245 69.168 49.0685 69.048 49.0685 68.904C49.0685 68.408 49.4285 68.152 50.1565 68.136L50.9965 68.112ZM54.7906 65.752C54.1586 65.752 53.6546 65.952 53.2786 66.368C52.8946 66.776 52.7106 67.296 52.7106 67.936C52.7106 68.568 52.8946 69.088 53.2706 69.488C53.6546 69.904 54.1586 70.112 54.7906 70.112C55.4146 70.112 55.9266 69.904 56.3106 69.488C56.6786 69.088 56.8706 68.568 56.8706 67.936C56.8706 67.296 56.6786 66.776 56.3026 66.368C55.9186 65.952 55.4146 65.752 54.7906 65.752ZM54.7906 66.496C55.1666 66.496 55.4626 66.64 55.6706 66.944C55.8466 67.2 55.9426 67.536 55.9426 67.936C55.9426 68.328 55.8466 68.656 55.6706 68.92C55.4626 69.216 55.1666 69.368 54.7906 69.368C54.4066 69.368 54.1186 69.216 53.9106 68.92C53.7346 68.664 53.6466 68.336 53.6466 67.936C53.6466 67.536 53.7346 67.2 53.9106 66.944C54.1186 66.64 54.4066 66.496 54.7906 66.496Z" fill="url(#paint3_linear_1_31)"/>
<path d="M18.28 65.864V66.608H20.488L18.2 69.384V70H21.848V69.256H19.4L21.72 66.448V65.864H18.28ZM22.5269 64.176V70H23.4389V67.688C23.4389 67.336 23.5189 67.056 23.6869 66.832C23.8469 66.608 24.0709 66.496 24.3589 66.496C24.6709 66.496 24.9029 66.592 25.0629 66.792C25.1989 66.976 25.2709 67.248 25.2709 67.6V70H26.1829V67.44C26.1829 66.888 26.0629 66.472 25.8309 66.192C25.5829 65.896 25.2069 65.752 24.7029 65.752C24.4389 65.752 24.2069 65.8 24.0069 65.904C23.7829 66.016 23.5909 66.184 23.4389 66.416V64.176H22.5269ZM27.7601 64.176C27.5841 64.176 27.4401 64.232 27.3201 64.344C27.2001 64.456 27.1441 64.6 27.1441 64.776C27.1441 64.952 27.2001 65.096 27.3201 65.216C27.4401 65.328 27.5841 65.384 27.7601 65.384C27.9361 65.384 28.0801 65.328 28.2001 65.216C28.3201 65.104 28.3841 64.952 28.3841 64.776C28.3841 64.6 28.3201 64.456 28.2081 64.344C28.0881 64.232 27.9361 64.176 27.7601 64.176ZM27.3041 65.864V70H28.2161V65.864H27.3041Z" fill="url(#paint4_linear_1_31)"/>
<path d="M72.56 64.176V70H73.472V64.176H72.56ZM76.2713 65.752C75.6553 65.752 75.1673 65.96 74.8153 66.384C74.4473 66.8 74.2713 67.312 74.2713 67.928C74.2713 68.616 74.4633 69.152 74.8473 69.544C75.2072 69.92 75.6953 70.112 76.3113 70.112C76.8633 70.112 77.3193 69.952 77.6873 69.64C77.9753 69.384 78.1673 69.056 78.2633 68.672H77.3513C77.2393 68.904 77.1193 69.072 76.9833 69.176C76.8073 69.304 76.5833 69.368 76.3033 69.368C75.9753 69.368 75.7193 69.264 75.5433 69.064C75.3673 68.864 75.2633 68.568 75.2313 68.184H78.3273C78.3273 67.44 78.1593 66.856 77.8313 66.44C77.4713 65.976 76.9513 65.752 76.2713 65.752ZM76.2953 66.496C76.9353 66.496 77.2953 66.824 77.3753 67.496H75.2473C75.3033 67.168 75.4153 66.92 75.5833 66.752C75.7593 66.576 75.9913 66.496 76.2953 66.496Z" fill="url(#paint5_linear_1_31)"/>
</g>
<defs>
<filter id="filter0_d_1_31" x="11.48" y="37.212" width="77.232" height="28.076" filterUnits="userSpaceOnUse" color-interpolation-filters="sRGB">
<feFlood flood-opacity="0" result="BackgroundImageFix"/>
<feColorMatrix in="SourceAlpha" type="matrix" values="0 0 0 0 0 0 0 0 0 0 0 0 0 0 0 0 0 0 127 0" result="hardAlpha"/>
<feOffset dy="4"/>
<feComposite in2="hardAlpha" operator="out"/>
<feColorMatrix type="matrix" values="0 0 0 0 0 0 0 0 0 0 0 0 0 0 0 0 0 0 0.1 0"/>
<feBlend mode="normal" in2="BackgroundImageFix" result="effect1_dropShadow_1_31"/>
<feBlend mode="normal" in="SourceGraphic" in2="effect1_dropShadow_1_31" result="shape"/>
</filter>
<linearGradient id="paint0_linear_1_31" x1="50" y1="-0.00990097" x2="50" y2="100.99" gradientUnits="userSpaceOnUse">
<stop stop-color="#6DB5F8"/>
<stop offset="1" stop-color="#4E96D9"/>
</linearGradient>
<linearGradient id="paint1_linear_1_31" x1="49.5" y1="10" x2="49.5" y2="40.4583" gradientUnits="userSpaceOnUse">
<stop stop-color="#5EB1FD"/>
<stop offset="1" stop-color="#FAFCFF" stop-opacity="0"/>
</linearGradient>
<linearGradient id="paint2_linear_1_31" x1="89" y1="24.6" x2="89" y2="36" gradientUnits="userSpaceOnUse">
<stop stop-color="#FD6666"/>
<stop offset="1" stop-color="#F87E7E"/>
</linearGradient>
<linearGradient id="paint3_linear_1_31" x1="50.5" y1="62" x2="50.5" y2="74.1" gradientUnits="userSpaceOnUse">
<stop stop-color="#FFFCFC" stop-opacity="0.67"/>
<stop offset="1" stop-color="white" stop-opacity="0.65"/>
</linearGradient>
<linearGradient id="paint4_linear_1_31" x1="23.5" y1="62" x2="23.5" y2="74.1" gradientUnits="userSpaceOnUse">
<stop stop-color="#FFFCFC" stop-opacity="0.67"/>
<stop offset="1" stop-color="white" stop-opacity="0.65"/>
</linearGradient>
<linearGradient id="paint5_linear_1_31" x1="75.5" y1="62" x2="75.5" y2="74.1" gradientUnits="userSpaceOnUse">
<stop stop-color="#FFFCFC" stop-opacity="0.67"/>
<stop offset="1" stop-color="white" stop-opacity="0.65"/>
</linearGradient>
</defs>
</svg>
